<svg xmlns="http://www.w3.org/2000/svg" version="1.1" xmlns:xlink="http://www.w3.org/1999/xlink" xmlns:svgjs="http://svgjs.dev/svgjs" width="900" height="900" preserveAspectRatio="none" viewBox="0 0 900 900"><g mask="url(&quot;#SvgjsMask12368&quot;)" fill="none"><rect width="900" height="900" x="0" y="0" fill="url(&quot;#SvgjsLinearGradient12369&quot;)"></rect><path d="M607.91 402.13L600.7 412.71 588.79 408.01 581.59 418.59 569.68 413.89 562.47 424.47 550.56 419.77M605.56 394.48L598.35 405.07 586.44 400.36 579.24 410.95 567.32 406.24 560.12 416.83 548.21 412.12" stroke="rgba(188, 220, 246, 1)" stroke-width="2.97"></path><circle r="75" cx="230.08" cy="25.39" stroke="rgba(32, 51, 101, 1)" stroke-width="2.72"></circle><path d="M295.31 39.04a5.6 5.6 0 1 0 10.33-4.34 5.6 5.6 0 1 0-10.33 4.34zM310.06 32.84a5.6 5.6 0 1 0 10.33-4.34 5.6 5.6 0 1 0-10.33 4.34zM324.81 26.64a5.6 5.6 0 1 0 10.33-4.34 5.6 5.6 0 1 0-10.33 4.34zM339.56 20.44a5.6 5.6 0 1 0 10.33-4.34 5.6 5.6 0 1 0-10.33 4.34zM272.01 66.19a5.6 5.6 0 1 0 10.33-4.34 5.6 5.6 0 1 0-10.33 4.34zM286.76 59.99a5.6 5.6 0 1 0 10.33-4.34 5.6 5.6 0 1 0-10.33 4.34zM301.51 53.79a5.6 5.6 0 1 0 10.33-4.34 5.6 5.6 0 1 0-10.33 4.34zM316.26 47.59a5.6 5.6 0 1 0 10.33-4.34 5.6 5.6 0 1 0-10.33 4.34z" stroke="rgba(32, 51, 101, 1)" stroke-width="1.15" stroke-dasharray="4, 4"></path><rect width="94.60000000000001" height="94.60000000000001" clip-path="url(&quot;#SvgjsClipPath12370&quot;)" x="824.97" y="205.07" fill="url(&quot;#SvgjsPattern12371&quot;)" transform="rotate(179.45, 872.27, 252.37)"></rect><path d="M477.86 116.73L483.29 128.33 473.17 136.17 478.6 147.77 468.48 155.61 473.91 167.21 463.78 175.06" stroke="rgba(188, 220, 246, 1)" stroke-width="1.31" stroke-dasharray="3, 3"></path></g><defs><mask id="SvgjsMask12368"><rect width="900" height="900" fill="#ffffff"></rect></mask><linearGradient x1="0%" y1="0%" x2="100%" y2="100%" gradientUnits="userSpaceOnUse" id="SvgjsLinearGradient12369"><stop stop-color="rgba(59, 116, 174, 1)" offset="0"></stop><stop stop-color="rgba(255, 255, 255, 0)" offset="0.61"></stop></linearGradient><pattern x="0" y="0" width="9.46" height="9.46" patternUnits="userSpaceOnUse" id="SvgjsPattern12371"><path d="M0 9.46L4.73 0L9.46 9.46" stroke="rgba(188, 220, 246, 1)" fill="none"></path></pattern><clipPath id="SvgjsClipPath12370"><circle r="23.650000000000002" cx="872.27" cy="252.37"></circle></clipPath></defs></svg>